<?xml version="1.0" encoding="utf-8" standalone="no"?>
<!DOCTYPE svg PUBLIC "-//W3C//DTD SVG 1.1//EN"
  "http://www.w3.org/Graphics/SVG/1.1/DTD/svg11.dtd">
<svg xmlns:xlink="http://www.w3.org/1999/xlink" width="460.8pt" height="345.6pt" viewBox="0 0 460.8 345.6" xmlns="http://www.w3.org/2000/svg" version="1.1">
 <metadata>
  <rdf:RDF xmlns:dc="http://purl.org/dc/elements/1.1/" xmlns:cc="http://creativecommons.org/ns#" xmlns:rdf="http://www.w3.org/1999/02/22-rdf-syntax-ns#">
   <cc:Work>
    <dc:type rdf:resource="http://purl.org/dc/dcmitype/StillImage"/>
    <dc:date>2022-10-15T18:07:11.656480</dc:date>
    <dc:format>image/svg+xml</dc:format>
    <dc:creator>
     <cc:Agent>
      <dc:title>Matplotlib v3.6.1, https://matplotlib.org/</dc:title>
     </cc:Agent>
    </dc:creator>
   </cc:Work>
  </rdf:RDF>
 </metadata>
 <defs>
  <style type="text/css">*{stroke-linejoin: round; stroke-linecap: butt}</style>
 </defs>
 <g id="figure_1">
  <g id="patch_1">
   <path d="M 0 345.6 
L 460.8 345.6 
L 460.8 0 
L 0 0 
z
" style="fill: #ffffff"/>
  </g>
  <g id="axes_1">
   <g id="patch_2">
    <path d="M 369.216 174.528 
C 369.216 157.055246 365.774248 139.752393 359.087715 123.609673 
C 352.401182 107.466954 342.599903 92.798303 330.2448 80.4432 
C 317.889697 68.088097 303.221046 58.286818 287.078327 51.600285 
C 270.935607 44.913752 253.632754 41.472 236.16 41.472 
C 218.687246 41.472 201.384393 44.913752 185.241673 51.600285 
C 169.098954 58.286818 154.430303 68.088097 142.0752 80.4432 
C 129.720097 92.798303 119.918818 107.466954 113.232285 123.609673 
C 106.545752 139.752393 103.104 157.055246 103.104 174.528 
C 103.104 192.000754 106.545752 209.303607 113.232285 225.446327 
C 119.918818 241.589046 129.720097 256.257697 142.0752 268.6128 
C 154.430303 280.967903 169.098954 290.769182 185.241673 297.455715 
C 201.384393 304.142248 218.687246 307.584 236.16 307.584 
C 253.632754 307.584 270.935607 304.142248 287.078327 297.455715 
C 303.221046 290.769182 317.889697 280.967903 330.2448 268.6128 
C 342.599903 256.257697 352.401182 241.589046 359.087715 225.446327 
C 365.774248 209.303607 369.216 192.000754 369.216 174.528 
M 236.16 174.528 
C 236.16 174.528 236.16 174.528 236.16 174.528 
C 236.16 174.528 236.16 174.528 236.16 174.528 
C 236.16 174.528 236.16 174.528 236.16 174.528 
C 236.16 174.528 236.16 174.528 236.16 174.528 
C 236.16 174.528 236.16 174.528 236.16 174.528 
C 236.16 174.528 236.16 174.528 236.16 174.528 
C 236.16 174.528 236.16 174.528 236.16 174.528 
C 236.16 174.528 236.16 174.528 236.16 174.528 
C 236.16 174.528 236.16 174.528 236.16 174.528 
C 236.16 174.528 236.16 174.528 236.16 174.528 
C 236.16 174.528 236.16 174.528 236.16 174.528 
C 236.16 174.528 236.16 174.528 236.16 174.528 
C 236.16 174.528 236.16 174.528 236.16 174.528 
C 236.16 174.528 236.16 174.528 236.16 174.528 
C 236.16 174.528 236.16 174.528 236.16 174.528 
C 236.16 174.528 236.16 174.528 236.16 174.528 
M 369.216 174.528 
z
" style="fill: #ffffff"/>
   </g>
   <g id="PathCollection_1">
    <defs>
     <path id="m6112853cea" d="M 0 5 
C 1.326016 5 2.597899 4.473168 3.535534 3.535534 
C 4.473168 2.597899 5 1.326016 5 0 
C 5 -1.326016 4.473168 -2.597899 3.535534 -3.535534 
C 2.597899 -4.473168 1.326016 -5 0 -5 
C -1.326016 -5 -2.597899 -4.473168 -3.535534 -3.535534 
C -4.473168 -2.597899 -5 -1.326016 -5 0 
C -5 1.326016 -4.473168 2.597899 -3.535534 3.535534 
C -2.597899 4.473168 -1.326016 5 0 5 
z
" style="stroke: #a80a15; stroke-opacity: 0.9"/>
    </defs>
    <g clip-path="url(#p6a92be35c4)">
     <use xlink:href="#m6112853cea" x="236.16" y="174.528" style="fill: #a80a15; fill-opacity: 0.9; stroke: #a80a15; stroke-opacity: 0.9"/>
    </g>
   </g>
   <g id="matplotlib.axis_1">
    <g id="ytick_1"/>
    <g id="ytick_2"/>
    <g id="ytick_3"/>
    <g id="ytick_4"/>
    <g id="ytick_5"/>
    <g id="ytick_6"/>
   </g>
   <g id="line2d_1">
    <path d="M 259.653669 174.528 
L 259.564324 172.474654 
L 259.296946 170.436733 
L 258.853508 168.429552 
L 258.23728 166.468209 
L 257.452811 164.567474 
L 256.505902 162.741689 
L 255.403559 161.004658 
L 254.153956 159.369551 
L 252.766374 157.848805 
L 251.251144 156.454032 
L 249.619569 155.195929 
L 247.883854 154.0842 
L 246.057017 153.127475 
L 244.152798 152.333243 
L 242.185563 151.707787 
L 240.170196 151.256134 
L 238.121996 150.982005 
L 236.056562 150.887783 
L 233.989673 150.974482 
L 231.937172 151.24173 
L 229.914842 151.687768 
L 227.938284 152.30945 
L 226.022795 153.102261 
L 224.183242 154.060341 
L 222.433946 155.17653 
L 220.788563 156.442409 
L 219.259972 157.848366 
L 217.860168 159.383667 
L 216.600158 161.036534 
L 215.489873 162.794239 
L 214.538077 164.643203 
L 213.752298 166.569102 
L 213.138756 168.556984 
L 212.702316 170.591392 
L 212.446439 172.656482 
L 212.373157 174.736163 
L 212.483051 176.814221 
L 212.775249 178.874456 
L 213.247432 180.900815 
L 213.895854 182.877523 
L 214.715378 184.789213 
L 215.699514 186.621049 
L 216.840484 188.358847 
L 218.129283 189.98919 
L 219.555758 191.499532 
L 221.108696 192.878297 
L 222.775918 194.11497 
L 224.544381 195.200171 
L 226.400286 196.12573 
L 228.329194 196.884741 
L 230.316142 197.471612 
L 232.345762 197.882099 
L 234.402407 198.113334 
L 236.470272 198.163833 
L 238.533518 198.033505 
L 240.57639 197.723638 
L 242.583343 197.236884 
L 244.539151 196.57723 
L 246.429025 195.749956 
L 248.238715 194.761594 
L 249.954618 193.619864 
L 251.563873 192.333619 
L 253.054448 190.912764 
L 254.415227 189.368189 
L 255.636086 187.711678 
L 256.707959 185.955821 
L 257.622904 184.113923 
L 258.374148 182.199904 
L 258.956142 180.2282 
L 259.364588 178.213654 
L 259.596475 176.171418 
L 259.650093 174.116837 
L 259.525046 172.065344 
L 259.222257 170.032351 
L 258.743958 168.033138 
L 258.093677 166.082747 
L 257.276218 164.195871 
L 256.297622 162.386751 
L 255.165137 160.669074 
L 253.887162 159.055869 
L 252.473192 157.559417 
L 250.933758 156.191152 
L 249.280352 154.961582 
L 247.525347 153.880199 
L 245.681913 152.955411 
L 243.763923 152.19447 
L 241.785855 151.603414 
L 239.762687 151.18701 
L 237.709785 150.948716 
L 235.642794 150.890641 
L 233.577515 151.013523 
L 231.52979 151.316715 
L 229.515374 151.798178 
L 227.549818 152.45449 
L 225.648342 153.280866 
L 223.825715 154.271182 
L 222.096132 155.418021 
L 220.473104 156.712722 
L 218.969342 158.145441 
L 217.596649 159.705229 
L 216.365826 161.380111 
L 215.286575 163.157179 
L 214.367422 165.022698 
L 213.615635 166.962208 
L 213.037169 168.960646 
L 212.63661 171.002467 
L 212.417136 173.071769 
L 212.380489 175.152424 
L 212.52696 177.22821 
L 212.855387 179.282947 
L 213.363162 181.300627 
L 214.04626 183.265546 
L 214.899266 185.162433 
L 215.915432 186.976572 
L 217.086726 188.693926 
L 218.403908 190.301243 
L 219.856605 191.786163 
L 221.433404 193.137316 
L 223.121943 194.344407 
L 224.90902 195.398294 
L 226.7807 196.291054 
L 228.722427 197.016042 
L 230.719149 197.567932 
L 232.755433 197.942754 
L 234.815589 198.137916 
L 236.883797 198.152212 
L 238.944223 197.985829 
L 240.981147 197.640329 
L 242.979077 197.118634 
L 244.922865 196.424993 
L 246.797822 195.564941 
L 248.589821 194.54525 
L 250.285398 193.373874 
L 251.871851 192.059882 
L 253.337326 190.613382 
L 254.670898 189.04545 
L 255.86265 187.368038 
L 256.903737 185.593887 
L 257.786444 183.736434 
L 258.504243 181.809708 
L 259.05183 179.828237 
L 259.425164 177.806933 
L 259.621492 175.760996 
L 259.639366 173.705797 
L 259.478655 171.656773 
L 259.140544 169.62932 
L 258.627525 167.638679 
L 257.943384 165.699828 
L 257.093175 163.82738 
L 256.083184 162.035473 
L 254.920893 160.337671 
L 253.614925 158.74686 
L 252.174988 157.275159 
L 250.611811 155.933824 
L 248.937068 154.733165 
L 247.1633 153.682464 
L 245.303824 152.789904 
L 243.372643 152.062497 
L 241.384343 151.506031 
L 239.353988 151.125016 
L 237.29701 150.92264 
L 235.229094 150.900742 
L 233.16606 151.059782 
L 231.12374 151.398836 
L 229.117861 151.915586 
L 227.163917 152.606337 
L 225.277046 153.466033 
L 223.471912 154.488288 
L 221.762583 155.665431 
L 220.162419 156.988559 
L 218.683957 158.447602 
L 217.338808 160.031398 
L 216.137559 161.727778 
L 215.089686 163.52366 
L 214.203465 165.405154 
L 213.485909 167.357672 
L 212.942702 169.366044 
L 212.578152 171.414643 
L 212.39515 173.48751 
L 212.39515 175.56849 
L 212.578152 177.641357 
L 212.942702 179.689956 
L 213.485909 181.698328 
L 214.203465 183.650846 
L 215.089686 185.53234 
L 216.137559 187.328222 
L 217.338808 189.024602 
L 218.683957 190.608398 
L 220.162419 192.067441 
L 221.762583 193.390569 
L 223.471912 194.567712 
L 225.277046 195.589967 
L 227.163917 196.449663 
L 229.117861 197.140414 
L 231.12374 197.657164 
L 233.16606 197.996218 
L 235.229094 198.155258 
L 237.29701 198.13336 
L 239.353988 197.930984 
L 241.384343 197.549969 
L 243.372643 196.993503 
L 245.303824 196.266096 
L 247.1633 195.373536 
L 248.937068 194.322835 
L 250.611811 193.122176 
L 252.174988 191.780841 
L 253.614925 190.30914 
L 254.920893 188.718329 
L 256.083184 187.020527 
L 257.093175 185.22862 
L 257.943384 183.356172 
L 258.627525 181.417321 
L 259.140544 179.42668 
L 259.478655 177.399227 
L 259.639366 175.350203 
L 259.621492 173.295004 
L 259.425164 171.249067 
L 259.05183 169.227763 
L 258.504243 167.246292 
L 257.786444 165.319566 
L 256.903737 163.462113 
L 255.86265 161.687962 
L 254.670898 160.01055 
L 253.337326 158.442618 
L 251.871851 156.996118 
L 250.285398 155.682126 
L 248.589821 154.51075 
L 246.797822 153.491059 
L 244.922865 152.631007 
L 242.979077 151.937366 
L 240.981147 151.415671 
L 238.944223 151.070171 
L 236.883797 150.903788 
L 234.815589 150.918084 
L 232.755433 151.113246 
L 230.719149 151.488068 
L 228.722427 152.039958 
L 226.7807 152.764946 
L 224.90902 153.657706 
L 223.121943 154.711593 
L 221.433404 155.918684 
L 219.856605 157.269837 
L 218.403908 158.754757 
L 217.086726 160.362074 
L 215.915432 162.079428 
L 214.899266 163.893567 
L 214.04626 165.790454 
L 213.363162 167.755373 
L 212.855387 169.773053 
L 212.52696 171.82779 
L 212.380489 173.903576 
L 212.417136 175.984231 
L 212.63661 178.053533 
L 213.037169 180.095354 
L 213.615635 182.093792 
L 214.367422 184.033302 
L 215.286575 185.898821 
L 216.365826 187.675889 
L 217.596649 189.350771 
L 218.969342 190.910559 
L 220.473104 192.343278 
L 222.096132 193.637979 
L 223.825715 194.784818 
L 225.648342 195.775134 
L 227.549818 196.60151 
L 229.515374 197.257822 
L 231.52979 197.739285 
L 233.577515 198.042477 
L 235.642794 198.165359 
L 237.709785 198.107284 
L 239.762687 197.86899 
L 241.785855 197.452586 
L 243.763923 196.86153 
L 245.681913 196.100589 
L 247.525347 195.175801 
L 249.280352 194.094418 
L 250.933758 192.864848 
L 252.473192 191.496583 
L 253.887162 190.000131 
L 255.165137 188.386926 
L 256.297622 186.669249 
L 257.276218 184.860129 
L 258.093677 182.973253 
L 258.743958 181.022862 
L 259.222257 179.023649 
L 259.525046 176.990656 
L 259.650093 174.939163 
L 259.596475 172.884582 
L 259.364588 170.842346 
L 258.956142 168.8278 
L 258.374148 166.856096 
L 257.622904 164.942077 
L 256.707959 163.100179 
L 255.636086 161.344322 
L 254.415227 159.687811 
L 253.054448 158.143236 
L 251.563873 156.722381 
L 249.954618 155.436136 
L 248.238715 154.294406 
L 246.429025 153.306044 
L 244.539151 152.47877 
L 242.583343 151.819116 
L 240.57639 151.332362 
L 238.533518 151.022495 
L 236.470272 150.892167 
L 234.402407 150.942666 
L 232.345762 151.173901 
L 230.316142 151.584388 
L 228.329194 152.171259 
L 226.400286 152.93027 
L 224.544381 153.855829 
L 222.775918 154.94103 
L 221.108696 156.177703 
L 219.555758 157.556468 
L 218.129283 159.06681 
L 216.840484 160.697153 
L 215.699514 162.434951 
L 214.715378 164.266787 
L 213.895854 166.178477 
L 213.247432 168.155185 
L 212.775249 170.181544 
L 212.483051 172.241779 
L 212.373157 174.319837 
L 212.446439 176.399518 
L 212.702316 178.464608 
L 213.138756 180.499016 
L 213.752298 182.486898 
L 214.538077 184.412797 
L 215.489873 186.261761 
L 216.600158 188.019466 
L 217.860168 189.672333 
L 219.259972 191.207634 
L 220.788563 192.613591 
L 222.433946 193.87947 
L 224.183242 194.995659 
L 226.022795 195.953739 
L 227.938284 196.74655 
L 229.914842 197.368232 
L 231.937172 197.81427 
L 233.989673 198.081518 
L 236.056562 198.168217 
L 238.121996 198.073995 
L 240.170196 197.799866 
L 242.185563 197.348213 
L 244.152798 196.722757 
L 246.057017 195.928525 
L 247.883854 194.9718 
L 249.619569 193.860071 
L 251.251144 192.601968 
L 252.766374 191.207195 
L 254.153956 189.686449 
L 255.403559 188.051342 
L 256.505902 186.314311 
L 257.452811 184.488526 
L 258.23728 182.587791 
L 258.853508 180.626448 
L 259.296946 178.619267 
L 259.564324 176.581346 
L 259.653669 174.528 
L 259.653669 174.528 
" clip-path="url(#p6a92be35c4)" style="fill: none; stroke: #3f3f3f; stroke-linecap: square"/>
   </g>
   <g id="line2d_2">
    <path d="M 268.125194 174.528 
L 268.00367 171.73424 
L 267.639993 168.961446 
L 267.036839 166.230438 
L 266.198648 163.561738 
L 265.131597 160.975429 
L 263.84356 158.491009 
L 262.344053 156.127251 
L 260.644174 153.902068 
L 258.756532 151.83238 
L 256.695158 149.933987 
L 254.475409 148.221453 
L 252.113871 146.70799 
L 249.628237 145.405354 
L 247.037184 144.323754 
L 244.360244 143.471761 
L 241.617661 142.856238 
L 238.830246 142.482275 
L 236.019219 142.353141 
L 233.206054 142.470242 
L 230.412317 142.833103 
L 227.659495 143.439353 
L 224.968833 144.284737 
L 222.361165 145.363133 
L 219.856746 146.666585 
L 217.47509 148.185363 
L 215.234809 149.908021 
L 213.153457 151.821486 
L 211.247387 153.911149 
L 209.531609 156.160978 
L 208.019665 158.553644 
L 206.723509 161.070652 
L 205.65341 163.692491 
L 204.817854 166.398794 
L 204.223476 169.168494 
L 203.875 171.980008 
L 203.775197 174.811405 
L 203.924862 177.64059 
L 204.322803 180.445488 
L 204.965856 183.204221 
L 205.848912 185.895296 
L 206.964959 188.497774 
L 208.305149 190.991444 
L 209.858869 193.356987 
L 211.613837 195.57613 
L 213.55621 197.631792 
L 215.670696 199.508216 
L 217.940693 201.191093 
L 220.348421 202.667668 
L 222.875077 203.926832 
L 225.500985 204.959203 
L 228.205761 205.757191 
L 230.968476 206.315044 
L 233.767823 206.628881 
L 236.582285 206.696713 
L 239.390302 206.51844 
L 242.170437 206.095846 
L 244.90154 205.432564 
L 247.562901 204.534045 
L 250.134408 203.407498 
L 252.596688 202.061829 
L 254.931249 200.507563 
L 257.120612 198.756756 
L 259.148428 196.822897 
L 260.999596 194.720809 
L 262.660361 192.466524 
L 264.118413 190.077171 
L 265.362962 187.570846 
L 266.384817 184.966478 
L 267.17644 182.283694 
L 267.731998 179.542675 
L 268.047401 176.764016 
L 268.12033 173.968576 
L 267.950247 171.177335 
L 267.538404 168.41124 
L 266.887831 165.691063 
L 266.003319 163.037252 
L 264.891387 160.469782 
L 263.560243 158.008018 
L 262.019724 155.670572 
L 260.281238 153.475169 
L 258.357683 151.438513 
L 256.263364 149.576169 
L 254.013894 147.902437 
L 251.626088 146.430247 
L 249.117846 145.171053 
L 246.508028 144.134742 
L 243.81632 143.32955 
L 241.063091 142.761989 
L 238.269245 142.43679 
L 235.456067 142.356851 
L 232.645063 142.523202 
L 229.857795 142.934991 
L 227.115716 143.589469 
L 224.440002 144.482004 
L 221.851385 145.606105 
L 219.369984 146.953457 
L 217.015146 148.513979 
L 214.805283 150.275896 
L 212.75772 152.225816 
L 210.888552 154.348838 
L 209.212507 156.62866 
L 207.742817 159.047709 
L 206.491107 161.587274 
L 205.467296 164.22766 
L 204.679505 166.948346 
L 204.133992 169.72815 
L 203.835092 172.545403 
L 203.785182 175.378127 
L 203.984661 178.204217 
L 204.43194 181.001622 
L 205.123464 183.748528 
L 206.053739 186.423538 
L 207.215381 189.005845 
L 208.59918 191.475404 
L 210.194184 193.813092 
L 211.987789 196.000865 
L 213.965851 198.021895 
L 216.112808 199.860707 
L 218.411808 201.503292 
L 220.844856 202.937219 
L 223.392962 204.151718 
L 226.036294 205.137762 
L 228.754347 205.888123 
L 231.526102 206.397423 
L 234.330197 206.662158 
L 237.145092 206.680717 
L 239.949241 206.453377 
L 242.721251 205.982296 
L 245.440045 205.271473 
L 248.085023 204.326717 
L 250.636207 203.15558 
L 253.074392 201.7673 
L 255.381278 200.172713 
L 257.539601 198.384172 
L 259.533254 196.415442 
L 261.347396 194.281594 
L 262.968556 191.998892 
L 264.38472 189.584669 
L 265.585414 187.057197 
L 266.561772 184.435556 
L 267.306593 181.739495 
L 267.814391 178.98929 
L 268.081428 176.2056 
L 268.10574 173.40932 
L 267.887148 170.621436 
L 267.427259 167.862871 
L 266.729459 165.154345 
L 265.798887 162.516221 
L 264.642404 159.968365 
L 263.268546 157.530003 
L 261.687473 155.219578 
L 259.910894 153.054622 
L 257.951999 151.051623 
L 255.825361 149.225899 
L 253.546842 147.591487 
L 251.133484 146.161029 
L 248.60339 144.945672 
L 245.975595 143.95498 
L 243.269934 143.19685 
L 240.506894 142.677441 
L 237.70747 142.401122 
L 234.893002 142.370418 
L 232.085021 142.585986 
L 229.305081 143.046592 
L 226.574593 143.749112 
L 223.914657 144.688539 
L 221.345896 145.858012 
L 218.888288 147.24886 
L 216.561004 148.850657 
L 214.382252 150.651295 
L 212.369123 152.637074 
L 210.537448 154.792803 
L 208.901665 157.101915 
L 207.474694 159.546597 
L 206.267827 162.107931 
L 205.290628 164.766043 
L 204.550853 167.500265 
L 204.054378 170.289305 
L 203.805149 173.111417 
L 203.805149 175.944583 
L 204.054378 178.766695 
L 204.550853 181.555735 
L 205.290628 184.289957 
L 206.267827 186.948069 
L 207.474694 189.509403 
L 208.901665 191.954085 
L 210.537448 194.263197 
L 212.369123 196.418926 
L 214.382252 198.404705 
L 216.561004 200.205343 
L 218.888288 201.80714 
L 221.345896 203.197988 
L 223.914657 204.367461 
L 226.574593 205.306888 
L 229.305081 206.009408 
L 232.085021 206.470014 
L 234.893002 206.685582 
L 237.70747 206.654878 
L 240.506894 206.378559 
L 243.269934 205.85915 
L 245.975595 205.10102 
L 248.60339 204.110328 
L 251.133484 202.894971 
L 253.546842 201.464513 
L 255.825361 199.830101 
L 257.951999 198.004377 
L 259.910894 196.001378 
L 261.687473 193.836422 
L 263.268546 191.525997 
L 264.642404 189.087635 
L 265.798887 186.539779 
L 266.729459 183.901655 
L 267.427259 181.193129 
L 267.887148 178.434564 
L 268.10574 175.64668 
L 268.081428 172.8504 
L 267.814391 170.06671 
L 267.306593 167.316505 
L 266.561772 164.620444 
L 265.585414 161.998803 
L 264.38472 159.471331 
L 262.968556 157.057108 
L 261.347396 154.774406 
L 259.533254 152.640558 
L 257.539601 150.671828 
L 255.381278 148.883287 
L 253.074392 147.2887 
L 250.636207 145.90042 
L 248.085023 144.729283 
L 245.440045 143.784527 
L 242.721251 143.073704 
L 239.949241 142.602623 
L 237.145092 142.375283 
L 234.330197 142.393842 
L 231.526102 142.658577 
L 228.754347 143.167877 
L 226.036294 143.918238 
L 223.392962 144.904282 
L 220.844856 146.118781 
L 218.411808 147.552708 
L 216.112808 149.195293 
L 213.965851 151.034105 
L 211.987789 153.055135 
L 210.194184 155.242908 
L 208.59918 157.580596 
L 207.215381 160.050155 
L 206.053739 162.632462 
L 205.123464 165.307472 
L 204.43194 168.054378 
L 203.984661 170.851783 
L 203.785182 173.677873 
L 203.835092 176.510597 
L 204.133992 179.32785 
L 204.679505 182.107654 
L 205.467296 184.82834 
L 206.491107 187.468726 
L 207.742817 190.008291 
L 209.212507 192.42734 
L 210.888552 194.707162 
L 212.75772 196.830184 
L 214.805283 198.780104 
L 217.015146 200.542021 
L 219.369984 202.102543 
L 221.851385 203.449895 
L 224.440002 204.573996 
L 227.115716 205.466531 
L 229.857795 206.121009 
L 232.645063 206.532798 
L 235.456067 206.699149 
L 238.269245 206.61921 
L 241.063091 206.294011 
L 243.81632 205.72645 
L 246.508028 204.921258 
L 249.117846 203.884947 
L 251.626088 202.625753 
L 254.013894 201.153563 
L 256.263364 199.479831 
L 258.357683 197.617487 
L 260.281238 195.580831 
L 262.019724 193.385428 
L 263.560243 191.047982 
L 264.891387 188.586218 
L 266.003319 186.018748 
L 266.887831 183.364937 
L 267.538404 180.64476 
L 267.950247 177.878665 
L 268.12033 175.087424 
L 268.047401 172.291984 
L 267.731998 169.513325 
L 267.17644 166.772306 
L 266.384817 164.089522 
L 265.362962 161.485154 
L 264.118413 158.978829 
L 262.660361 156.589476 
L 260.999596 154.335191 
L 259.148428 152.233103 
L 257.120612 150.299244 
L 254.931249 148.548437 
L 252.596688 146.994171 
L 250.134408 145.648502 
L 247.562901 144.521955 
L 244.90154 143.623436 
L 242.170437 142.960154 
L 239.390302 142.53756 
L 236.582285 142.359287 
L 233.767823 142.427119 
L 230.968476 142.740956 
L 228.205761 143.298809 
L 225.500985 144.096797 
L 222.875077 145.129168 
L 220.348421 146.388332 
L 217.940693 147.864907 
L 215.670696 149.547784 
L 213.55621 151.424208 
L 211.613837 153.47987 
L 209.858869 155.699013 
L 208.305149 158.064556 
L 206.964959 160.558226 
L 205.848912 163.160704 
L 204.965856 165.851779 
L 204.322803 168.610512 
L 203.924862 171.41541 
L 203.775197 174.244595 
L 203.875 177.075992 
L 204.223476 179.887506 
L 204.817854 182.657206 
L 205.65341 185.363509 
L 206.723509 187.985348 
L 208.019665 190.502356 
L 209.531609 192.895022 
L 211.247387 195.144851 
L 213.153457 197.234514 
L 215.234809 199.147979 
L 217.47509 200.870637 
L 219.856746 202.389415 
L 222.361165 203.692867 
L 224.968833 204.771263 
L 227.659495 205.616647 
L 230.412317 206.222897 
L 233.206054 206.585758 
L 236.019219 206.702859 
L 238.830246 206.573725 
L 241.617661 206.199762 
L 244.360244 205.584239 
L 247.037184 204.732246 
L 249.628237 203.650646 
L 252.113871 202.34801 
L 254.475409 200.834547 
L 256.695158 199.122013 
L 258.756532 197.22362 
L 260.644174 195.153932 
L 262.344053 192.928749 
L 263.84356 190.564991 
L 265.131597 188.080571 
L 266.198648 185.494262 
L 267.036839 182.825562 
L 267.639993 180.094554 
L 268.00367 177.32176 
L 268.125194 174.528 
L 268.125194 174.528 
" clip-path="url(#p6a92be35c4)" style="fill: none; stroke: #3f3f3f; stroke-linecap: square"/>
   </g>
   <g id="line2d_3">
    <path d="M 281.109691 174.528 
L 280.939113 170.599367 
L 280.428618 166.700055 
L 279.581922 162.859186 
L 278.405189 159.105474 
L 276.906999 155.467035 
L 275.098292 151.971181 
L 272.992297 148.644236 
L 270.604456 145.511338 
L 267.952321 142.596267 
L 265.055441 139.92126 
L 261.935238 137.50685 
L 258.614864 135.371702 
L 255.119044 133.532468 
L 251.473911 132.003653 
L 247.706823 130.797484 
L 243.846171 129.923807 
L 239.921175 129.389992 
L 235.961671 129.200854 
L 231.997888 129.358595 
L 228.060223 129.862767 
L 224.179001 130.710248 
L 220.384245 131.895243 
L 216.705429 133.409312 
L 213.171245 135.241411 
L 209.809367 137.377959 
L 206.646217 139.802931 
L 203.706743 142.497967 
L 201.014206 145.442508 
L 198.589978 148.613952 
L 196.453355 151.987825 
L 194.621384 155.537977 
L 193.108713 159.236793 
L 191.92746 163.055415 
L 191.0871 166.963981 
L 190.594381 170.931878 
L 190.453264 174.927988 
L 190.664883 178.92096 
L 191.227537 182.879467 
L 192.136704 186.772473 
L 193.385084 190.569494 
L 194.962667 194.240849 
L 196.856819 197.757911 
L 199.052402 201.09334 
L 201.531904 204.221304 
L 204.275601 207.117689 
L 207.261728 209.760289 
L 210.46667 212.128972 
L 213.865166 214.205835 
L 217.430526 215.975334 
L 221.134854 217.42439 
L 224.949283 218.542473 
L 228.844208 219.32167 
L 232.789529 219.75672 
L 236.754885 219.845037 
L 240.709897 219.586703 
L 244.624394 218.984447 
L 248.468647 218.043602 
L 252.213585 216.772038 
L 255.831008 215.180086 
L 259.293787 213.280439 
L 262.576057 211.08804 
L 265.653394 208.619955 
L 268.502981 205.895236 
L 271.103759 202.934769 
L 273.436569 199.761113 
L 275.484272 196.398334 
L 277.231862 192.871823 
L 278.666561 189.208116 
L 279.777896 185.434701 
L 280.557768 181.57983 
L 281.000497 177.672316 
L 281.102864 173.741334 
L 280.864124 169.816223 
L 280.286013 165.92628 
L 279.372738 162.100561 
L 278.130951 158.367678 
L 276.569708 154.7556 
L 274.700413 151.291457 
L 272.536745 148.001351 
L 270.094575 144.910163 
L 267.391865 142.041378 
L 264.44855 139.416905 
L 261.286408 137.056916 
L 257.928918 134.979686 
L 254.401103 133.201447 
L 250.729355 131.736257 
L 246.941253 130.595877 
L 243.065372 129.789664 
L 239.131072 129.324482 
L 235.168285 129.204628 
L 231.207293 129.431777 
L 227.278496 130.004946 
L 223.41218 130.920478 
L 219.638275 132.172047 
L 215.98612 133.750688 
L 212.48422 135.644843 
L 209.160018 137.840434 
L 206.039658 140.32096 
L 203.147768 143.067609 
L 200.507247 146.059402 
L 198.139066 149.273346 
L 196.062084 152.684617 
L 194.292881 156.266754 
L 192.845607 159.991875 
L 191.731861 163.830903 
L 190.960578 167.753805 
L 190.537953 171.729844 
L 190.467383 175.727838 
L 190.749435 179.716417 
L 191.381843 183.664293 
L 192.359524 187.540519 
L 193.674632 191.314751 
L 195.316621 194.9575 
L 197.272349 198.440377 
L 199.526189 201.736327 
L 202.060176 204.819846 
L 204.854162 207.667187 
L 207.885997 210.256545 
L 211.13172 212.568222 
L 214.565766 214.584779 
L 218.161186 216.291155 
L 221.88987 217.674776 
L 225.722786 218.72563 
L 229.63021 219.436333 
L 233.58197 219.802158 
L 237.547685 219.821052 
L 241.496996 219.493632 
L 245.399806 218.82315 
L 249.226496 217.815451 
L 252.948156 216.478906 
L 256.536782 214.824326 
L 259.965485 212.864863 
L 263.208674 210.615896 
L 266.242232 208.094899 
L 269.043683 205.321303 
L 271.592337 202.316343 
L 273.869429 199.102893 
L 275.85824 195.705297 
L 277.544202 192.14919 
L 278.914991 188.461315 
L 279.960604 184.669329 
L 280.673423 180.801609 
L 281.048259 176.887059 
L 281.082385 172.954902 
L 280.775552 169.034486 
L 280.129993 165.155075 
L 279.150406 161.345652 
L 277.843928 157.634716 
L 276.220088 154.050085 
L 274.290752 150.618698 
L 272.070046 147.366427 
L 269.574266 144.317889 
L 266.821779 141.496267 
L 263.8329 138.923136 
L 260.629758 136.6183 
L 257.236156 134.599637 
L 253.677402 132.882955 
L 249.980141 131.481862 
L 246.17217 130.407645 
L 242.282235 129.66917 
L 238.339828 129.272793 
L 234.37497 129.22229 
L 230.417986 129.518807 
L 226.49927 130.160827 
L 222.649057 131.144158 
L 218.897178 132.461943 
L 215.272824 134.104693 
L 211.804307 136.06034 
L 208.518827 138.314314 
L 205.442243 140.849641 
L 202.598854 143.647064 
L 200.011189 146.685188 
L 197.69981 149.940639 
L 195.683133 153.388248 
L 193.977263 157.001255 
L 192.595851 160.751517 
L 191.549969 164.609748 
L 190.848011 168.545754 
L 190.495615 172.528689 
L 190.495615 176.527311 
L 190.848011 180.510246 
L 191.549969 184.446252 
L 192.595851 188.304483 
L 193.977263 192.054745 
L 195.683133 195.667752 
L 197.69981 199.115361 
L 200.011189 202.370812 
L 202.598854 205.408936 
L 205.442243 208.206359 
L 208.518827 210.741686 
L 211.804307 212.99566 
L 215.272824 214.951307 
L 218.897178 216.594057 
L 222.649057 217.911842 
L 226.49927 218.895173 
L 230.417986 219.537193 
L 234.37497 219.83371 
L 238.339828 219.783207 
L 242.282235 219.38683 
L 246.17217 218.648355 
L 249.980141 217.574138 
L 253.677402 216.173045 
L 257.236156 214.456363 
L 260.629758 212.4377 
L 263.8329 210.132864 
L 266.821779 207.559733 
L 269.574266 204.738111 
L 272.070046 201.689573 
L 274.290752 198.437302 
L 276.220088 195.005915 
L 277.843928 191.421284 
L 279.150406 187.710348 
L 280.129993 183.900925 
L 280.775552 180.021514 
L 281.082385 176.101098 
L 281.048259 172.168941 
L 280.673423 168.254391 
L 279.960604 164.386671 
L 278.914991 160.594685 
L 277.544202 156.90681 
L 275.85824 153.350703 
L 273.869429 149.953107 
L 271.592337 146.739657 
L 269.043683 143.734697 
L 266.242232 140.961101 
L 263.208674 138.440104 
L 259.965485 136.191137 
L 256.536782 134.231674 
L 252.948156 132.577094 
L 249.226496 131.240549 
L 245.399806 130.23285 
L 241.496996 129.562368 
L 237.547685 129.234948 
L 233.58197 129.253842 
L 229.63021 129.619667 
L 225.722786 130.33037 
L 221.88987 131.381224 
L 218.161186 132.764845 
L 214.565766 134.471221 
L 211.13172 136.487778 
L 207.885997 138.799455 
L 204.854162 141.388813 
L 202.060176 144.236154 
L 199.526189 147.319673 
L 197.272349 150.615623 
L 195.316621 154.0985 
L 193.674632 157.741249 
L 192.359524 161.515481 
L 191.381843 165.391707 
L 190.749435 169.339583 
L 190.467383 173.328162 
L 190.537953 177.326156 
L 190.960578 181.302195 
L 191.731861 185.225097 
L 192.845607 189.064125 
L 194.292881 192.789246 
L 196.062084 196.371383 
L 198.139066 199.782654 
L 200.507247 202.996598 
L 203.147768 205.988391 
L 206.039658 208.73504 
L 209.160018 211.215566 
L 212.48422 213.411157 
L 215.98612 215.305312 
L 219.638275 216.883953 
L 223.41218 218.135522 
L 227.278496 219.051054 
L 231.207293 219.624223 
L 235.168285 219.851372 
L 239.131072 219.731518 
L 243.065372 219.266336 
L 246.941253 218.460123 
L 250.729355 217.319743 
L 254.401103 215.854553 
L 257.928918 214.076314 
L 261.286408 211.999084 
L 264.44855 209.639095 
L 267.391865 207.014622 
L 270.094575 204.145837 
L 272.536745 201.054649 
L 274.700413 197.764543 
L 276.569708 194.3004 
L 278.130951 190.688322 
L 279.372738 186.955439 
L 280.286013 183.12972 
L 280.864124 179.239777 
L 281.102864 175.314666 
L 281.000497 171.383684 
L 280.557768 167.47617 
L 279.777896 163.621299 
L 278.666561 159.847884 
L 277.231862 156.184177 
L 275.484272 152.657666 
L 273.436569 149.294887 
L 271.103759 146.121231 
L 268.502981 143.160764 
L 265.653394 140.436045 
L 262.576057 137.96796 
L 259.293787 135.775561 
L 255.831008 133.875914 
L 252.213585 132.283962 
L 248.468647 131.012398 
L 244.624394 130.071553 
L 240.709897 129.469297 
L 236.754885 129.210963 
L 232.789529 129.29928 
L 228.844208 129.73433 
L 224.949283 130.513527 
L 221.134854 131.63161 
L 217.430526 133.080666 
L 213.865166 134.850165 
L 210.46667 136.927028 
L 207.261728 139.295711 
L 204.275601 141.938311 
L 201.531904 144.834696 
L 199.052402 147.96266 
L 196.856819 151.298089 
L 194.962667 154.815151 
L 193.385084 158.486506 
L 192.136704 162.283527 
L 191.227537 166.176533 
L 190.664883 170.13504 
L 190.453264 174.128012 
L 190.594381 178.124122 
L 191.0871 182.092019 
L 191.92746 186.000585 
L 193.108713 189.819207 
L 194.621384 193.518023 
L 196.453355 197.068175 
L 198.589978 200.442048 
L 201.014206 203.613492 
L 203.706743 206.558033 
L 206.646217 209.253069 
L 209.809367 211.678041 
L 213.171245 213.814589 
L 216.705429 215.646688 
L 220.384245 217.160757 
L 224.179001 218.345752 
L 228.060223 219.193233 
L 231.997888 219.697405 
L 235.961671 219.855146 
L 239.921175 219.666008 
L 243.846171 219.132193 
L 247.706823 218.258516 
L 251.473911 217.052347 
L 255.119044 215.523532 
L 258.614864 213.684298 
L 261.935238 211.54915 
L 265.055441 209.13474 
L 267.952321 206.459733 
L 270.604456 203.544662 
L 272.992297 200.411764 
L 275.098292 197.084819 
L 276.906999 193.588965 
L 278.405189 189.950526 
L 279.581922 186.196814 
L 280.428618 182.355945 
L 280.939113 178.456633 
L 281.109691 174.528 
L 281.109691 174.528 
" clip-path="url(#p6a92be35c4)" style="fill: none; stroke: #3f3f3f; stroke-linecap: square"/>
   </g>
   <g id="line2d_4">
    <path d="M 295.43168 174.528 
L 295.206022 169.347679 
L 294.530724 164.206404 
L 293.410798 159.142939 
L 291.85456 154.195489 
L 289.873576 149.401423 
L 287.482582 144.797005 
L 284.699382 140.417124 
L 281.544731 136.295044 
L 278.042189 132.462154 
L 274.21796 128.947734 
L 270.100709 125.778729 
L 265.721361 122.979548 
L 261.112883 120.571865 
L 256.310047 118.574454 
L 251.34918 117.003028 
L 246.267897 115.870108 
L 241.104829 115.184913 
L 235.89933 114.953275 
L 230.691185 115.177571 
L 225.520303 115.856692 
L 220.426416 116.986026 
L 215.448763 118.557486 
L 210.62579 120.559542 
L 205.994839 122.977305 
L 201.591853 125.792621 
L 197.451083 128.9842 
L 193.604809 132.527773 
L 190.083079 136.396271 
L 186.913453 140.56003 
L 184.120781 144.987022 
L 181.726988 149.643104 
L 179.750892 154.492284 
L 178.208046 159.497013 
L 177.110604 164.618482 
L 176.467216 169.816936 
L 176.282954 175.051995 
L 176.559273 180.282982 
L 177.293994 185.469254 
L 178.481322 190.57053 
L 180.111901 195.547218 
L 182.172886 200.360736 
L 184.648063 204.973824 
L 187.517977 209.350838 
L 190.760101 213.458035 
L 194.349028 217.263841 
L 198.256679 220.739093 
L 202.452542 223.857268 
L 206.90392 226.594678 
L 211.576199 228.93065 
L 216.433135 230.847672 
L 221.437141 232.331519 
L 226.549587 233.371347 
L 231.73111 233.95976 
L 236.941919 234.092846 
L 242.142105 233.770195 
L 247.291945 232.99488 
L 252.352206 231.773414 
L 257.28444 230.115685 
L 262.051264 228.034862 
L 266.616644 225.547283 
L 270.946147 222.672313 
L 275.007199 219.432188 
L 278.769307 215.85184 
L 282.204286 211.9587 
L 285.286444 207.782485 
L 287.99277 203.35498 
L 290.30309 198.709793 
L 292.200203 193.88211 
L 293.670001 188.908437 
L 294.701562 183.826332 
L 295.287227 178.674133 
L 295.422648 173.490685 
L 295.106821 168.315054 
L 294.34209 163.186254 
L 293.134131 158.142958 
L 291.491916 153.223227 
L 289.427652 148.46423 
L 286.956696 143.901976 
L 284.097453 139.571051 
L 280.871252 135.504362 
L 277.302195 131.732896 
L 273.416993 128.285481 
L 269.24478 125.188573 
L 264.816908 122.466048 
L 260.166723 120.139014 
L 255.329329 118.225643 
L 250.341333 116.74102 
L 245.240576 115.697015 
L 240.065855 115.102175 
L 234.856636 114.961645 
L 229.652752 115.277107 
L 224.494102 116.04675 
L 219.420343 117.265268 
L 214.470581 118.923878 
L 209.683066 121.010373 
L 205.094883 123.509201 
L 200.741659 126.401571 
L 196.657273 129.665582 
L 192.873581 133.276392 
L 189.42015 137.206394 
L 186.324018 141.425434 
L 183.609464 145.901038 
L 181.297807 150.598673 
L 179.407224 155.482012 
L 177.952598 160.513228 
L 176.945388 165.653299 
L 176.393534 170.862319 
L 176.301389 176.099821 
L 176.669679 181.32511 
L 177.4955 186.497588 
L 178.772339 191.577085 
L 180.490136 196.524188 
L 182.635363 201.300554 
L 185.191145 205.869222 
L 188.137397 210.194906 
L 191.451004 214.244277 
L 195.106003 217.986224 
L 199.073812 221.392095 
L 203.323459 224.435918 
L 207.821842 227.094595 
L 212.533999 229.348073 
L 217.423394 231.179491 
L 222.452205 232.575293 
L 227.581634 233.525319 
L 232.772206 234.022866 
L 237.984082 234.064726 
L 243.177365 233.651186 
L 248.312407 232.78601 
L 253.350109 231.476394 
L 258.252212 229.73289 
L 262.981582 227.56931 
L 267.502485 225.002609 
L 271.780841 222.05274 
L 275.784472 218.742493 
L 279.483333 215.097316 
L 282.849719 211.145114 
L 285.858463 206.916037 
L 288.487109 202.442252 
L 290.716066 197.757705 
L 292.528744 192.897866 
L 293.911665 187.899473 
L 294.854554 182.800262 
L 295.350411 177.638695 
L 295.395556 172.453682 
L 294.989654 167.284304 
L 294.135717 162.169526 
L 292.840084 157.147923 
L 291.112381 152.257398 
L 288.96545 147.534911 
L 286.415269 143.016206 
L 283.480838 138.735553 
L 280.184051 134.725496 
L 276.549547 131.016606 
L 272.604539 127.637256 
L 268.378619 124.613401 
L 263.903556 121.968377 
L 259.21307 119.722719 
L 254.342583 117.893992 
L 249.328973 116.496648 
L 244.210293 115.5419 
L 239.0255 115.03762 
L 233.814155 114.988265 
L 228.616129 115.39482 
L 223.471297 116.254775 
L 218.419232 117.562124 
L 213.498893 119.307396 
L 208.74832 121.477708 
L 204.20433 124.056849 
L 199.902224 127.025395 
L 195.875498 130.360845 
L 192.15557 134.037786 
L 188.771522 138.028086 
L 185.749855 142.301106 
L 183.114273 146.823941 
L 180.88548 151.561675 
L 179.081006 156.477658 
L 177.715057 161.5338 
L 176.798397 166.690876 
L 176.338253 171.908841 
L 176.338253 177.147159 
L 176.798397 182.365124 
L 177.715057 187.5222 
L 179.081006 192.578342 
L 180.88548 197.494325 
L 183.114273 202.232059 
L 185.749855 206.754894 
L 188.771522 211.027914 
L 192.15557 215.018214 
L 195.875498 218.695155 
L 199.902224 222.030605 
L 204.20433 224.999151 
L 208.74832 227.578292 
L 213.498893 229.748604 
L 218.419232 231.493876 
L 223.471297 232.801225 
L 228.616129 233.66118 
L 233.814155 234.067735 
L 239.0255 234.01838 
L 244.210293 233.5141 
L 249.328973 232.559352 
L 254.342583 231.162008 
L 259.21307 229.333281 
L 263.903556 227.087623 
L 268.378619 224.442599 
L 272.604539 221.418744 
L 276.549547 218.039394 
L 280.184051 214.330504 
L 283.480838 210.320447 
L 286.415269 206.039794 
L 288.96545 201.521089 
L 291.112381 196.798602 
L 292.840084 191.908077 
L 294.135717 186.886474 
L 294.989654 181.771696 
L 295.395556 176.602318 
L 295.350411 171.417305 
L 294.854554 166.255738 
L 293.911665 161.156527 
L 292.528744 156.158134 
L 290.716066 151.298295 
L 288.487109 146.613748 
L 285.858463 142.139963 
L 282.849719 137.910886 
L 279.483333 133.958684 
L 275.784472 130.313507 
L 271.780841 127.00326 
L 267.502485 124.053391 
L 262.981582 121.48669 
L 258.252212 119.32311 
L 253.350109 117.579606 
L 248.312407 116.26999 
L 243.177365 115.404814 
L 237.984082 114.991274 
L 232.772206 115.033134 
L 227.581634 115.530681 
L 222.452205 116.480707 
L 217.423394 117.876509 
L 212.533999 119.707927 
L 207.821842 121.961405 
L 203.323459 124.620082 
L 199.073812 127.663905 
L 195.106003 131.069776 
L 191.451004 134.811723 
L 188.137397 138.861094 
L 185.191145 143.186778 
L 182.635363 147.755446 
L 180.490136 152.531812 
L 178.772339 157.478915 
L 177.4955 162.558412 
L 176.669679 167.73089 
L 176.301389 172.956179 
L 176.393534 178.193681 
L 176.945388 183.402701 
L 177.952598 188.542772 
L 179.407224 193.573988 
L 181.297807 198.457327 
L 183.609464 203.154962 
L 186.324018 207.630566 
L 189.42015 211.849606 
L 192.873581 215.779608 
L 196.657273 219.390418 
L 200.741659 222.654429 
L 205.094883 225.546799 
L 209.683066 228.045627 
L 214.470581 230.132122 
L 219.420343 231.790732 
L 224.494102 233.00925 
L 229.652752 233.778893 
L 234.856636 234.094355 
L 240.065855 233.953825 
L 245.240576 233.358985 
L 250.341333 232.31498 
L 255.329329 230.830357 
L 260.166723 228.916986 
L 264.816908 226.589952 
L 269.24478 223.867427 
L 273.416993 220.770519 
L 277.302195 217.323104 
L 280.871252 213.551638 
L 284.097453 209.484949 
L 286.956696 205.154024 
L 289.427652 200.59177 
L 291.491916 195.832773 
L 293.134131 190.913042 
L 294.34209 185.869746 
L 295.106821 180.740946 
L 295.422648 175.565315 
L 295.287227 170.381867 
L 294.701562 165.229668 
L 293.670001 160.147563 
L 292.200203 155.17389 
L 290.30309 150.346207 
L 287.99277 145.70102 
L 285.286444 141.273515 
L 282.204286 137.0973 
L 278.769307 133.20416 
L 275.007199 129.623812 
L 270.946147 126.383687 
L 266.616644 123.508717 
L 262.051264 121.021138 
L 257.28444 118.940315 
L 252.352206 117.282586 
L 247.291945 116.06112 
L 242.142105 115.285805 
L 236.941919 114.963154 
L 231.73111 115.09624 
L 226.549587 115.684653 
L 221.437141 116.724481 
L 216.433135 118.208328 
L 211.576199 120.12535 
L 206.90392 122.461322 
L 202.452542 125.198732 
L 198.256679 128.316907 
L 194.349028 131.792159 
L 190.760101 135.597965 
L 187.517977 139.705162 
L 184.648063 144.082176 
L 182.172886 148.695264 
L 180.111901 153.508782 
L 178.481322 158.48547 
L 177.293994 163.586746 
L 176.559273 168.773018 
L 176.282954 174.004005 
L 176.467216 179.239064 
L 177.110604 184.437518 
L 178.208046 189.558987 
L 179.750892 194.563716 
L 181.726988 199.412896 
L 184.120781 204.068978 
L 186.913453 208.49597 
L 190.083079 212.659729 
L 193.604809 216.528227 
L 197.451083 220.0718 
L 201.591853 223.263379 
L 205.994839 226.078695 
L 210.62579 228.496458 
L 215.448763 230.498514 
L 220.426416 232.069974 
L 225.520303 233.199308 
L 230.691185 233.878429 
L 235.89933 234.102725 
L 241.104829 233.871087 
L 246.267897 233.185892 
L 251.34918 232.052972 
L 256.310047 230.481546 
L 261.112883 228.484135 
L 265.721361 226.076452 
L 270.100709 223.277271 
L 274.21796 220.108266 
L 278.042189 216.593846 
L 281.544731 212.760956 
L 284.699382 208.638876 
L 287.482582 204.258995 
L 289.873576 199.654577 
L 291.85456 194.860511 
L 293.410798 189.913061 
L 294.530724 184.849596 
L 295.206022 179.708321 
L 295.43168 174.528 
L 295.43168 174.528 
" clip-path="url(#p6a92be35c4)" style="fill: none; stroke: #3f3f3f; stroke-linecap: square"/>
   </g>
   <g id="line2d_5">
    <path d="M 306.884187 174.528 
L 306.629541 168.345453 
L 305.866861 162.201854 
L 304.599929 156.136073 
L 302.835071 150.186814 
L 300.581187 144.39253 
L 297.849799 138.791311 
L 294.655101 133.420778 
L 291.014019 128.317937 
L 286.946269 123.51903 
L 282.474422 119.059349 
L 277.623959 114.973034 
L 272.42331 111.292837 
L 266.903885 108.049863 
L 261.10008 105.273279 
L 255.049248 102.990003 
L 248.791644 101.22436 
L 242.370318 99.997732 
L 235.830963 99.32818 
L 229.22171 99.230064 
L 222.592861 99.713669 
L 215.996557 100.784834 
L 209.486379 102.444605 
L 203.116891 104.688925 
L 196.943107 107.508364 
L 191.019905 110.88792 
L 185.401391 114.806879 
L 180.140213 119.238768 
L 175.286851 124.151404 
L 170.888897 129.507038 
L 166.990326 135.262619 
L 163.630805 141.370153 
L 160.845032 147.77719 
L 158.662144 154.427396 
L 157.105206 161.261227 
L 156.190793 168.216683 
L 155.928689 175.230118 
L 156.321704 182.2371 
L 157.365626 189.173282 
L 159.049292 195.975281 
L 161.354803 202.581524 
L 164.257843 208.933052 
L 167.728118 214.974257 
L 171.729887 220.653536 
L 176.222566 225.923849 
L 181.161401 230.743181 
L 186.498165 235.074877 
L 192.181885 238.887889 
L 198.159566 242.156895 
L 204.376895 244.86233 
L 210.778915 246.990319 
L 217.310659 248.532526 
L 223.917719 249.485937 
L 230.546767 249.852583 
L 237.145999 249.639221 
L 243.665524 248.856981 
L 250.05768 247.520994 
L 256.277286 245.650014 
L 262.281841 243.266042 
L 268.031664 240.39395 
L 273.48999 237.061132 
L 278.623019 233.297166 
L 283.399939 229.13351 
L 287.79291 224.603213 
L 291.77704 219.740662 
L 295.330333 214.581357 
L 298.433635 209.161704 
L 301.070571 203.518846 
L 303.227487 197.690506 
L 304.893389 191.714857 
L 306.059895 185.63041 
L 306.721189 179.475908 
L 306.873997 173.290244 
L 306.517563 167.112372 
L 305.653649 160.981231 
L 304.286544 154.935665 
L 302.423085 149.014335 
L 300.072694 143.255629 
L 297.247423 137.697556 
L 293.962005 132.377622 
L 290.233921 127.332697 
L 286.083454 122.598845 
L 281.533752 118.211147 
L 276.610882 114.203484 
L 271.343869 110.608301 
L 265.764721 107.456339 
L 259.908429 104.776342 
L 253.812931 102.594735 
L 247.519052 100.935286 
L 241.070383 99.818741 
L 234.513124 99.262451 
L 227.895864 99.279994 
L 221.2693 99.880793 
L 214.685896 101.069754 
L 208.199469 102.846928 
L 201.864716 105.207202 
L 195.736673 108.140046 
L 189.870117 111.629324 
L 184.318917 115.653171 
L 179.135346 120.183965 
L 174.369364 125.188394 
L 170.067896 130.627626 
L 166.274112 136.457587 
L 163.026734 142.629351 
L 160.359395 149.089642 
L 158.300054 155.781426 
L 156.870509 162.644607 
L 156.085996 169.616788 
L 155.954916 176.634097 
L 156.478674 183.632048 
L 157.651657 190.546418 
L 159.461335 197.314119 
L 161.888495 203.874039 
L 164.907588 210.167832 
L 168.487185 216.140641 
L 172.590526 221.741735 
L 177.176139 226.925046 
L 182.198516 231.649606 
L 187.608824 235.879868 
L 193.355628 239.585919 
L 199.385614 242.743593 
L 205.644286 245.334469 
L 212.076639 247.345794 
L 218.627771 248.770317 
L 225.243452 249.606057 
L 231.870625 249.856016 
L 238.45784 249.527855 
L 244.955628 248.633533 
L 251.316805 247.188937 
L 257.496712 245.213502 
L 263.453403 242.729831 
L 269.147773 239.763328 
L 274.543648 236.341849 
L 279.607825 232.495374 
L 284.310087 228.255699 
L 288.623189 223.656162 
L 292.522819 218.731388 
L 295.987556 213.517075 
L 298.998807 208.049789 
L 301.540745 202.366801 
L 303.600254 196.505933 
L 305.166865 190.505435 
L 306.232712 184.403871 
L 306.79249 178.240022 
L 306.84343 172.052799 
L 306.385278 165.88116 
L 305.420302 159.764031 
L 303.953297 153.740227 
L 301.991614 147.848361 
L 299.545198 142.126756 
L 296.626631 136.613328 
L 293.251194 131.34547 
L 289.436919 126.359902 
L 285.20466 121.69251 
L 280.578145 117.378151 
L 275.584029 113.450439 
L 270.251934 109.941501 
L 264.614463 106.881701 
L 258.7072 104.299348 
L 252.56867 102.220362 
L 246.240259 100.667938 
L 239.766096 99.662171 
L 233.192878 99.21969 
L 226.56964 99.353269 
L 219.947461 100.071458 
L 213.379111 101.37822 
L 206.918624 103.272592 
L 200.62081 105.7484 
L 194.540702 108.794004 
L 188.732949 112.392129 
L 183.251156 116.519758 
L 178.147192 121.148124 
L 173.470469 126.242793 
L 169.267217 131.763859 
L 165.579771 137.666241 
L 162.445884 143.900102 
L 159.898098 150.411363 
L 157.963177 157.142319 
L 156.661635 164.032351 
L 156.007359 171.0187 
L 156.007359 178.0373 
L 156.661635 185.023649 
L 157.963177 191.913681 
L 159.898098 198.644637 
L 162.445884 205.155898 
L 165.579771 211.389759 
L 169.267217 217.292141 
L 173.470469 222.813207 
L 178.147192 227.907876 
L 183.251156 232.536242 
L 188.732949 236.663871 
L 194.540702 240.261996 
L 200.62081 243.3076 
L 206.918624 245.783408 
L 213.379111 247.67778 
L 219.947461 248.984542 
L 226.56964 249.702731 
L 233.192878 249.83631 
L 239.766096 249.393829 
L 246.240259 248.388062 
L 252.56867 246.835638 
L 258.7072 244.756652 
L 264.614463 242.174299 
L 270.251934 239.114499 
L 275.584029 235.605561 
L 280.578145 231.677849 
L 285.20466 227.36349 
L 289.436919 222.696098 
L 293.251194 217.71053 
L 296.626631 212.442672 
L 299.545198 206.929244 
L 301.991614 201.207639 
L 303.953297 195.315773 
L 305.420302 189.291969 
L 306.385278 183.17484 
L 306.84343 177.003201 
L 306.79249 170.815978 
L 306.232712 164.652129 
L 305.166865 158.550565 
L 303.600254 152.550067 
L 301.540745 146.689199 
L 298.998807 141.006211 
L 295.987556 135.538925 
L 292.522819 130.324612 
L 288.623189 125.399838 
L 284.310087 120.800301 
L 279.607825 116.560626 
L 274.543648 112.714151 
L 269.147773 109.292672 
L 263.453403 106.326169 
L 257.496712 103.842498 
L 251.316805 101.867063 
L 244.955628 100.422467 
L 238.45784 99.528145 
L 231.870625 99.199984 
L 225.243452 99.449943 
L 218.627771 100.285683 
L 212.076639 101.710206 
L 205.644286 103.721531 
L 199.385614 106.312407 
L 193.355628 109.470081 
L 187.608824 113.176132 
L 182.198516 117.406394 
L 177.176139 122.130954 
L 172.590526 127.314265 
L 168.487185 132.915359 
L 164.907588 138.888168 
L 161.888495 145.181961 
L 159.461335 151.741881 
L 157.651657 158.509582 
L 156.478674 165.423952 
L 155.954916 172.421903 
L 156.085996 179.439212 
L 156.870509 186.411393 
L 158.300054 193.274574 
L 160.359395 199.966358 
L 163.026734 206.426649 
L 166.274112 212.598413 
L 170.067896 218.428374 
L 174.369364 223.867606 
L 179.135346 228.872035 
L 184.318917 233.402829 
L 189.870117 237.426676 
L 195.736673 240.915954 
L 201.864716 243.848798 
L 208.199469 246.209072 
L 214.685896 247.986246 
L 221.2693 249.175207 
L 227.895864 249.776006 
L 234.513124 249.793549 
L 241.070383 249.237259 
L 247.519052 248.120714 
L 253.812931 246.461265 
L 259.908429 244.279658 
L 265.764721 241.599661 
L 271.343869 238.447699 
L 276.610882 234.852516 
L 281.533752 230.844853 
L 286.083454 226.457155 
L 290.233921 221.723303 
L 293.962005 216.678378 
L 297.247423 211.358444 
L 300.072694 205.800371 
L 302.423085 200.041665 
L 304.286544 194.120335 
L 305.653649 188.074769 
L 306.517563 181.943628 
L 306.873997 175.765756 
L 306.721189 169.580092 
L 306.059895 163.42559 
L 304.893389 157.341143 
L 303.227487 151.365494 
L 301.070571 145.537154 
L 298.433635 139.894296 
L 295.330333 134.474643 
L 291.77704 129.315338 
L 287.79291 124.452787 
L 283.399939 119.92249 
L 278.623019 115.758834 
L 273.48999 111.994868 
L 268.031664 108.66205 
L 262.281841 105.789958 
L 256.277286 103.405986 
L 250.05768 101.535006 
L 243.665524 100.199019 
L 237.145999 99.416779 
L 230.546767 99.203417 
L 223.917719 99.570063 
L 217.310659 100.523474 
L 210.778915 102.065681 
L 204.376895 104.19367 
L 198.159566 106.899105 
L 192.181885 110.168111 
L 186.498165 113.981123 
L 181.161401 118.312819 
L 176.222566 123.132151 
L 171.729887 128.402464 
L 167.728118 134.081743 
L 164.257843 140.122948 
L 161.354803 146.474476 
L 159.049292 153.080719 
L 157.365626 159.882718 
L 156.321704 166.8189 
L 155.928689 173.825882 
L 156.190793 180.839317 
L 157.105206 187.794773 
L 158.662144 194.628604 
L 160.845032 201.27881 
L 163.630805 207.685847 
L 166.990326 213.793381 
L 170.888897 219.548962 
L 175.286851 224.904596 
L 180.140213 229.817232 
L 185.401391 234.249121 
L 191.019905 238.16808 
L 196.943107 241.547636 
L 203.116891 244.367075 
L 209.486379 246.611395 
L 215.996557 248.271166 
L 222.592861 249.342331 
L 229.22171 249.825936 
L 235.830963 249.72782 
L 242.370318 249.058268 
L 248.791644 247.83164 
L 255.049248 246.065997 
L 261.10008 243.782721 
L 266.903885 241.006137 
L 272.42331 237.763163 
L 277.623959 234.082966 
L 282.474422 229.996651 
L 286.946269 225.53697 
L 291.014019 220.738063 
L 294.655101 215.635222 
L 297.849799 210.264689 
L 300.581187 204.66347 
L 302.835071 198.869186 
L 304.599929 192.919927 
L 305.866861 186.854146 
L 306.629541 180.710547 
L 306.884187 174.528 
L 306.884187 174.528 
" clip-path="url(#p6a92be35c4)" style="fill: none; stroke: #3f3f3f; stroke-linecap: square"/>
   </g>
   <g id="line2d_6">
    <path d="M 331.332014 174.528 
L 330.96859 166.2101 
L 329.881063 157.955463 
L 328.077656 149.826881 
L 325.572001 141.886203 
L 322.383048 134.193876 
L 318.534923 126.80849 
L 314.05675 119.786339 
L 308.982443 113.180997 
L 303.350452 107.042912 
L 297.203487 101.419027 
L 290.588194 96.352414 
L 283.55482 91.881954 
L 276.156831 88.042027 
L 268.450522 84.862247 
L 260.494588 82.367231 
L 252.34969 80.576398 
L 244.077997 79.503815 
L 235.742708 79.158073 
L 227.407583 79.542214 
L 219.136447 80.653694 
L 210.992703 82.484389 
L 203.038847 85.020649 
L 195.335979 88.243387 
L 187.943333 92.128218 
L 180.917813 96.645639 
L 174.313547 101.761241 
L 168.181464 107.435974 
L 162.56889 113.626441 
L 157.519173 120.285227 
L 153.071344 127.361263 
L 149.2598 134.800225 
L 146.114035 142.544949 
L 143.658402 150.535878 
L 141.911917 158.711529 
L 140.88811 167.008967 
L 140.594912 175.364307 
L 141.034595 183.713207 
L 142.203753 191.991375 
L 144.093327 200.135077 
L 146.688681 208.081629 
L 149.969717 215.769895 
L 153.911038 223.14076 
L 158.482149 230.137594 
L 163.647703 236.70669 
L 169.36778 242.79768 
L 175.598206 248.363924 
L 182.290905 253.36287 
L 189.394276 257.756371 
L 196.8536 261.510984 
L 204.61147 264.598209 
L 212.608244 266.994711 
L 220.782502 268.682479 
L 229.071529 269.648963 
L 237.411797 269.887152 
L 245.739456 269.39562 
L 253.990821 268.178523 
L 262.102857 266.245556 
L 270.013663 263.611864 
L 277.662933 260.297923 
L 284.992418 256.329363 
L 291.946356 251.736774 
L 298.471893 246.555458 
L 304.519474 240.825158 
L 310.043212 234.589749 
L 315.001227 227.896904 
L 319.355954 220.797727 
L 323.074418 213.346369 
L 326.128478 205.599619 
L 328.495031 197.616473 
L 330.156181 189.457695 
L 331.09937 181.18536 
L 331.317468 172.862393 
L 330.808828 164.552093 
L 329.577294 156.317667 
L 327.632174 148.221756 
L 324.988176 140.325965 
L 321.665296 132.690407 
L 317.688674 125.373245 
L 313.088412 118.430264 
L 307.899352 111.914444 
L 302.160819 105.875563 
L 295.916336 100.359816 
L 289.213299 95.409464 
L 282.102628 91.062508 
L 274.638389 87.352398 
L 266.877389 84.307765 
L 258.878755 81.952201 
L 250.703485 80.304067 
L 242.413991 79.376342 
L 234.073626 79.176512 
L 225.746199 79.706503 
L 217.495491 80.962654 
L 209.384763 82.935729 
L 201.476269 85.610983 
L 193.830775 88.968257 
L 186.507084 92.982127 
L 179.561581 97.622089 
L 173.047787 102.852785 
L 167.015942 108.634271 
L 161.512604 114.922317 
L 156.580287 121.668748 
L 152.257116 128.821813 
L 148.57653 136.326583 
L 145.567012 144.125381 
L 143.251861 152.158227 
L 141.649007 160.363307 
L 140.770867 168.677459 
L 140.624246 177.036663 
L 141.210278 185.37655 
L 142.524423 193.632897 
L 144.556501 201.742141 
L 147.290771 209.641869 
L 150.706063 217.271311 
L 154.77594 224.571813 
L 159.468918 231.487295 
L 164.748711 237.964685 
L 170.574522 243.954331 
L 176.901367 249.410384 
L 183.680435 254.291145 
L 190.859466 258.55939 
L 198.383169 262.182642 
L 206.193656 265.133422 
L 214.230888 267.389444 
L 222.43315 268.933783 
L 230.737525 269.75499 
L 239.080381 269.847171 
L 247.397862 269.210015 
L 255.626375 267.848793 
L 263.703073 265.774296 
L 271.566336 263.002749 
L 279.156236 259.555671 
L 286.414985 255.459704 
L 293.287371 250.746399 
L 299.721169 245.45197 
L 305.667529 239.617012 
L 311.081339 233.286187 
L 315.921559 226.507883 
L 320.151519 219.333848 
L 323.739195 211.818792 
L 326.657438 204.019979 
L 328.884172 195.996797 
L 330.402562 187.810308 
L 331.201128 179.522794 
L 331.273835 171.197292 
L 330.620133 162.897122 
L 329.244963 154.685414 
L 327.15872 146.62464 
L 324.377179 138.776143 
L 320.921378 131.19968 
L 316.817465 123.952976 
L 312.096508 117.091286 
L 306.794269 110.666981 
L 300.950936 104.729152 
L 294.610832 99.323234 
L 287.822088 94.490663 
L 280.636285 90.268551 
L 273.108068 86.689404 
L 265.294745 83.780863 
L 257.255852 81.565486 
L 249.052707 80.06057 
L 240.747949 79.278002 
L 232.405061 79.224161 
L 224.087885 79.899856 
L 215.860137 81.300308 
L 207.784916 83.415174 
L 199.924217 86.228615 
L 192.33845 89.719408 
L 185.085972 93.861095 
L 178.222628 98.622183 
L 171.801317 103.966375 
L 165.871573 109.852842 
L 160.479174 116.236539 
L 155.665782 123.068545 
L 151.468608 130.296439 
L 147.920119 137.86471 
L 145.04778 145.715181 
L 142.873829 153.787469 
L 141.415103 162.019451 
L 140.682903 170.347753 
L 140.682903 178.708247 
L 141.415103 187.036549 
L 142.873829 195.268531 
L 145.04778 203.340819 
L 147.920119 211.19129 
L 151.468608 218.759561 
L 155.665782 225.987455 
L 160.479174 232.819461 
L 165.871573 239.203158 
L 171.801317 245.089625 
L 178.222628 250.433817 
L 185.085972 255.194905 
L 192.33845 259.336592 
L 199.924217 262.827385 
L 207.784916 265.640826 
L 215.860137 267.755692 
L 224.087885 269.156144 
L 232.405061 269.831839 
L 240.747949 269.777998 
L 249.052707 268.99543 
L 257.255852 267.490514 
L 265.294745 265.275137 
L 273.108068 262.366596 
L 280.636285 258.787449 
L 287.822088 254.565337 
L 294.610832 249.732766 
L 300.950936 244.326848 
L 306.794269 238.389019 
L 312.096508 231.964714 
L 316.817465 225.103024 
L 320.921378 217.85632 
L 324.377179 210.279857 
L 327.15872 202.43136 
L 329.244963 194.370586 
L 330.620133 186.158878 
L 331.273835 177.858708 
L 331.201128 169.533206 
L 330.402562 161.245692 
L 328.884172 153.059203 
L 326.657438 145.036021 
L 323.739195 137.237208 
L 320.151519 129.722152 
L 315.921559 122.548117 
L 311.081339 115.769813 
L 305.667529 109.438988 
L 299.721169 103.60403 
L 293.287371 98.309601 
L 286.414985 93.596296 
L 279.156236 89.500329 
L 271.566336 86.053251 
L 263.703073 83.281704 
L 255.626375 81.207207 
L 247.397862 79.845985 
L 239.080381 79.208829 
L 230.737525 79.30101 
L 222.43315 80.122217 
L 214.230888 81.666556 
L 206.193656 83.922578 
L 198.383169 86.873358 
L 190.859466 90.49661 
L 183.680435 94.764855 
L 176.901367 99.645616 
L 170.574522 105.101669 
L 164.748711 111.091315 
L 159.468918 117.568705 
L 154.77594 124.484187 
L 150.706063 131.784689 
L 147.290771 139.414131 
L 144.556501 147.313859 
L 142.524423 155.423103 
L 141.210278 163.67945 
L 140.624246 172.019337 
L 140.770867 180.378541 
L 141.649007 188.692693 
L 143.251861 196.897773 
L 145.567012 204.930619 
L 148.57653 212.729417 
L 152.257116 220.234187 
L 156.580287 227.387252 
L 161.512604 234.133683 
L 167.015942 240.421729 
L 173.047787 246.203215 
L 179.561581 251.433911 
L 186.507084 256.073873 
L 193.830775 260.087743 
L 201.476269 263.445017 
L 209.384763 266.120271 
L 217.495491 268.093346 
L 225.746199 269.349497 
L 234.073626 269.879488 
L 242.413991 269.679658 
L 250.703485 268.751933 
L 258.878755 267.103799 
L 266.877389 264.748235 
L 274.638389 261.703602 
L 282.102628 257.993492 
L 289.213299 253.646536 
L 295.916336 248.696184 
L 302.160819 243.180437 
L 307.899352 237.141556 
L 313.088412 230.625736 
L 317.688674 223.682755 
L 321.665296 216.365593 
L 324.988176 208.730035 
L 327.632174 200.834244 
L 329.577294 192.738333 
L 330.808828 184.503907 
L 331.317468 176.193607 
L 331.09937 167.87064 
L 330.156181 159.598305 
L 328.495031 151.439527 
L 326.128478 143.456381 
L 323.074418 135.709631 
L 319.355954 128.258273 
L 315.001227 121.159096 
L 310.043212 114.466251 
L 304.519474 108.230842 
L 298.471893 102.500542 
L 291.946356 97.319226 
L 284.992418 92.726637 
L 277.662933 88.758077 
L 270.013663 85.444136 
L 262.102857 82.810444 
L 253.990821 80.877477 
L 245.739456 79.66038 
L 237.411797 79.168848 
L 229.071529 79.407037 
L 220.782502 80.373521 
L 212.608244 82.061289 
L 204.61147 84.457791 
L 196.8536 87.545016 
L 189.394276 91.299629 
L 182.290905 95.69313 
L 175.598206 100.692076 
L 169.36778 106.25832 
L 163.647703 112.34931 
L 158.482149 118.918406 
L 153.911038 125.91524 
L 149.969717 133.286105 
L 146.688681 140.974371 
L 144.093327 148.920923 
L 142.203753 157.064625 
L 141.034595 165.342793 
L 140.594912 173.691693 
L 140.88811 182.047033 
L 141.911917 190.344471 
L 143.658402 198.520122 
L 146.114035 206.511051 
L 149.2598 214.255775 
L 153.071344 221.694737 
L 157.519173 228.770773 
L 162.56889 235.429559 
L 168.181464 241.620026 
L 174.313547 247.294759 
L 180.917813 252.410361 
L 187.943333 256.927782 
L 195.335979 260.812613 
L 203.038847 264.035351 
L 210.992703 266.571611 
L 219.136447 268.402306 
L 227.407583 269.513786 
L 235.742708 269.897927 
L 244.077997 269.552185 
L 252.34969 268.479602 
L 260.494588 266.688769 
L 268.450522 264.193753 
L 276.156831 261.013973 
L 283.55482 257.174046 
L 290.588194 252.703586 
L 297.203487 247.636973 
L 303.350452 242.013088 
L 308.982443 235.875003 
L 314.05675 229.269661 
L 318.534923 222.24751 
L 322.383048 214.862124 
L 325.572001 207.169797 
L 328.077656 199.229119 
L 329.881063 191.100537 
L 330.96859 182.8459 
L 331.332014 174.528 
L 331.332014 174.528 
" clip-path="url(#p6a92be35c4)" style="fill: none; stroke: #3f3f3f; stroke-linecap: square"/>
   </g>
   <g id="line2d_7">
    <path d="M 361.451124 174.528 
L 360.974389 163.577583 
L 359.547706 152.709561 
L 357.181632 142.005742 
L 353.893675 131.54676 
L 349.708191 121.411497 
L 344.656213 111.676517 
L 338.775245 102.415506 
L 332.109013 93.698737 
L 324.707166 85.592548 
L 316.624938 78.158849 
L 307.922769 71.454647 
L 298.665884 65.531613 
L 288.923835 60.435671 
L 278.77001 56.206632 
L 268.281107 52.877864 
L 257.536574 50.476007 
L 246.618034 49.020732 
L 235.608671 48.524555 
L 224.592614 48.992697 
L 213.654288 50.423 
L 202.877775 52.805903 
L 192.346152 56.124468 
L 182.140839 60.354474 
L 172.340955 65.464564 
L 163.022678 71.416453 
L 154.258625 78.165195 
L 146.117261 85.659511 
L 138.662328 93.842164 
L 131.952313 102.6504 
L 126.039962 112.016424 
L 120.971823 121.867938 
L 116.787859 132.128707 
L 113.5211 142.719172 
L 111.197361 153.55709 
L 109.835019 164.5582 
L 109.444852 175.636907 
L 110.029948 186.706982 
L 111.585677 197.682268 
L 114.09973 208.477382 
L 117.55223 219.008412 
L 121.915897 229.193597 
L 127.156292 238.953994 
L 133.232105 248.214108 
L 140.095513 256.902497 
L 147.692587 264.952333 
L 155.963747 272.301928 
L 164.844263 278.895205 
L 174.264794 284.682121 
L 184.151961 289.619039 
L 194.428948 293.66904 
L 205.016125 296.802179 
L 215.831689 298.995681 
L 226.792307 300.23408 
L 237.81378 300.509294 
L 248.811687 299.820645 
L 259.702039 298.174821 
L 270.401915 295.585782 
L 280.830079 292.074609 
L 290.907586 287.66931 
L 300.558358 282.404564 
L 309.709733 276.321433 
L 318.292985 269.467021 
L 326.24381 261.8941 
L 333.50278 253.660694 
L 340.015746 244.829636 
L 345.734219 235.468093 
L 350.615696 225.647061 
L 354.623945 215.440847 
L 357.729257 204.926522 
L 359.908633 194.183366 
L 361.145946 183.292293 
L 361.432044 172.335276 
L 360.764811 161.394757 
L 359.149182 150.55306 
L 356.597109 139.891806 
L 353.127483 129.491323 
L 348.766007 119.430075 
L 343.545027 109.784096 
L 337.503314 100.62643 
L 330.685803 92.026605 
L 323.143289 84.050111 
L 314.932078 76.757916 
L 306.113603 70.205992 
L 296.753991 64.444893 
L 286.923602 59.519348 
L 276.69653 55.467906 
L 266.150066 52.322609 
L 255.364143 50.108721 
L 244.420744 48.844496 
L 233.403294 48.541 
L 222.39603 49.201984 
L 211.483364 50.823809 
L 200.749226 53.395434 
L 190.276415 56.898455 
L 180.145944 61.307212 
L 170.436392 66.588942 
L 161.223275 72.704005 
L 152.578426 79.606161 
L 144.569409 87.242906 
L 137.258958 95.555865 
L 130.704449 104.481234 
L 124.957421 113.950274 
L 120.063137 123.889853 
L 116.060199 134.223021 
L 112.980214 144.869631 
L 110.847526 155.746981 
L 109.679002 166.770488 
L 109.483887 177.854375 
L 110.263727 188.91237 
L 112.012349 199.858416 
L 114.715922 210.607367 
L 118.353071 221.075687 
L 122.895063 231.182129 
L 128.30606 240.848388 
L 134.543419 249.999732 
L 141.558062 258.565599 
L 149.294892 266.48015 
L 157.693258 273.68278 
L 166.687462 280.118588 
L 176.207309 285.738784 
L 186.178684 290.501052 
L 196.524159 294.369849 
L 207.163616 297.316651 
L 218.014894 299.320134 
L 228.994436 300.366306 
L 240.017944 300.448565 
L 251.001035 299.567711 
L 261.85988 297.731897 
L 272.511848 294.95652 
L 282.876113 291.264064 
L 292.874257 286.683892 
L 302.430844 281.251986 
L 311.473957 275.010643 
L 319.935718 268.008134 
L 327.752764 260.298313 
L 334.866689 251.940205 
L 341.224448 242.997546 
L 346.778726 233.538312 
L 351.48825 223.634203 
L 355.318077 213.360122 
L 358.239823 202.793628 
L 360.231854 192.014373 
L 361.279432 181.10353 
L 361.374807 170.143213 
L 360.517275 159.215886 
L 358.713178 148.403781 
L 355.975863 137.788306 
L 352.325595 127.449463 
L 347.789422 117.465274 
L 342.400992 107.911218 
L 336.200333 98.85968 
L 329.233576 90.37942 
L 321.552648 82.535063 
L 313.214913 75.386611 
L 304.282778 68.988989 
L 294.823255 63.391615 
L 284.907492 58.638011 
L 274.610265 54.765447 
L 264.00944 51.804632 
L 253.185409 49.779444 
L 242.22049 48.706712 
L 231.198324 48.596048 
L 220.203232 49.449728 
L 209.319584 51.262633 
L 198.631135 54.022244 
L 188.22038 57.708695 
L 178.167896 62.294891 
L 168.551699 67.746674 
L 159.446616 74.023061 
L 150.923676 81.076529 
L 143.049517 88.853367 
L 135.885844 97.294078 
L 129.488903 106.333829 
L 123.909011 115.902958 
L 119.190128 125.927522 
L 115.369481 136.329882 
L 112.477244 147.029326 
L 110.536282 157.942722 
L 109.561945 168.985193 
L 109.561945 180.070807 
L 110.536282 191.113278 
L 112.477244 202.026674 
L 115.369481 212.726118 
L 119.190128 223.128478 
L 123.909011 233.153042 
L 129.488903 242.722171 
L 135.885844 251.761922 
L 143.049517 260.202633 
L 150.923676 267.979471 
L 159.446616 275.032939 
L 168.551699 281.309326 
L 178.167896 286.761109 
L 188.22038 291.347305 
L 198.631135 295.033756 
L 209.319584 297.793367 
L 220.203232 299.606272 
L 231.198324 300.459952 
L 242.22049 300.349288 
L 253.185409 299.276556 
L 264.00944 297.251368 
L 274.610265 294.290553 
L 284.907492 290.417989 
L 294.823255 285.664385 
L 304.282778 280.067011 
L 313.214913 273.669389 
L 321.552648 266.520937 
L 329.233576 258.67658 
L 336.200333 250.19632 
L 342.400992 241.144782 
L 347.789422 231.590726 
L 352.325595 221.606537 
L 355.975863 211.267694 
L 358.713178 200.652219 
L 360.517275 189.840114 
L 361.374807 178.912787 
L 361.279432 167.95247 
L 360.231854 157.041627 
L 358.239823 146.262372 
L 355.318077 135.695878 
L 351.48825 125.421797 
L 346.778726 115.517688 
L 341.224448 106.058454 
L 334.866689 97.115795 
L 327.752764 88.757687 
L 319.935718 81.047866 
L 311.473957 74.045357 
L 302.430844 67.804014 
L 292.874257 62.372108 
L 282.876113 57.791936 
L 272.511848 54.09948 
L 261.85988 51.324103 
L 251.001035 49.488289 
L 240.017944 48.607435 
L 228.994436 48.689694 
L 218.014894 49.735866 
L 207.163616 51.739349 
L 196.524159 54.686151 
L 186.178684 58.554948 
L 176.207309 63.317216 
L 166.687462 68.937412 
L 157.693258 75.37322 
L 149.294892 82.57585 
L 141.558062 90.490401 
L 134.543419 99.056268 
L 128.30606 108.207612 
L 122.895063 117.873871 
L 118.353071 127.980313 
L 114.715922 138.448633 
L 112.012349 149.197584 
L 110.263727 160.14363 
L 109.483887 171.201625 
L 109.679002 182.285512 
L 110.847526 193.309019 
L 112.980214 204.186369 
L 116.060199 214.832979 
L 120.063137 225.166147 
L 124.957421 235.105726 
L 130.704449 244.574766 
L 137.258958 253.500135 
L 144.569409 261.813094 
L 152.578426 269.449839 
L 161.223275 276.351995 
L 170.436392 282.467058 
L 180.145944 287.748788 
L 190.276415 292.157545 
L 200.749226 295.660566 
L 211.483364 298.232191 
L 222.39603 299.854016 
L 233.403294 300.515 
L 244.420744 300.211504 
L 255.364143 298.947279 
L 266.150066 296.733391 
L 276.69653 293.588094 
L 286.923602 289.536652 
L 296.753991 284.611107 
L 306.113603 278.850008 
L 314.932078 272.298084 
L 323.143289 265.005889 
L 330.685803 257.029395 
L 337.503314 248.42957 
L 343.545027 239.271904 
L 348.766007 229.625925 
L 353.127483 219.564677 
L 356.597109 209.164194 
L 359.149182 198.50294 
L 360.764811 187.661243 
L 361.432044 176.720724 
L 361.145946 165.763707 
L 359.908633 154.872634 
L 357.729257 144.129478 
L 354.623945 133.615153 
L 350.615696 123.408939 
L 345.734219 113.587907 
L 340.015746 104.226364 
L 333.50278 95.395306 
L 326.24381 87.1619 
L 318.292985 79.588979 
L 309.709733 72.734567 
L 300.558358 66.651436 
L 290.907586 61.38669 
L 280.830079 56.981391 
L 270.401915 53.470218 
L 259.702039 50.881179 
L 248.811687 49.235355 
L 237.81378 48.546706 
L 226.792307 48.82192 
L 215.831689 50.060319 
L 205.016125 52.253821 
L 194.428948 55.38696 
L 184.151961 59.436961 
L 174.264794 64.373879 
L 164.844263 70.160795 
L 155.963747 76.754072 
L 147.692587 84.103667 
L 140.095513 92.153503 
L 133.232105 100.841892 
L 127.156292 110.102006 
L 121.915897 119.862403 
L 117.55223 130.047588 
L 114.09973 140.578618 
L 111.585677 151.373732 
L 110.029948 162.349018 
L 109.444852 173.419093 
L 109.835019 184.4978 
L 111.197361 195.49891 
L 113.5211 206.336828 
L 116.787859 216.927293 
L 120.971823 227.188062 
L 126.039962 237.039576 
L 131.952313 246.4056 
L 138.662328 255.213836 
L 146.117261 263.396489 
L 154.258625 270.890805 
L 163.022678 277.639547 
L 172.340955 283.591436 
L 182.140839 288.701526 
L 192.346152 292.931532 
L 202.877775 296.250097 
L 213.654288 298.633 
L 224.592614 300.063303 
L 235.608671 300.531445 
L 246.618034 300.035268 
L 257.536574 298.579993 
L 268.281107 296.178136 
L 278.77001 292.849368 
L 288.923835 288.620329 
L 298.665884 283.524387 
L 307.922769 277.601353 
L 316.624938 270.897151 
L 324.707166 263.463452 
L 332.109013 255.357263 
L 338.775245 246.640494 
L 344.656213 237.379483 
L 349.708191 227.644503 
L 353.893675 217.50924 
L 357.181632 207.050258 
L 359.547706 196.346439 
L 360.974389 185.478417 
L 361.451124 174.528 
L 361.451124 174.528 
" clip-path="url(#p6a92be35c4)" style="fill: none; stroke: #3f3f3f; stroke-linecap: square"/>
   </g>
  </g>
 </g>
 <defs>
  <clipPath id="p6a92be35c4">
   <path d="M 369.216 174.528 
C 369.216 157.055246 365.774248 139.752393 359.087715 123.609673 
C 352.401182 107.466954 342.599903 92.798303 330.2448 80.4432 
C 317.889697 68.088097 303.221046 58.286818 287.078327 51.600285 
C 270.935607 44.913752 253.632754 41.472 236.16 41.472 
C 218.687246 41.472 201.384393 44.913752 185.241673 51.600285 
C 169.098954 58.286818 154.430303 68.088097 142.0752 80.4432 
C 129.720097 92.798303 119.918818 107.466954 113.232285 123.609673 
C 106.545752 139.752393 103.104 157.055246 103.104 174.528 
C 103.104 192.000754 106.545752 209.303607 113.232285 225.446327 
C 119.918818 241.589046 129.720097 256.257697 142.0752 268.6128 
C 154.430303 280.967903 169.098954 290.769182 185.241673 297.455715 
C 201.384393 304.142248 218.687246 307.584 236.16 307.584 
C 253.632754 307.584 270.935607 304.142248 287.078327 297.455715 
C 303.221046 290.769182 317.889697 280.967903 330.2448 268.6128 
C 342.599903 256.257697 352.401182 241.589046 359.087715 225.446327 
C 365.774248 209.303607 369.216 192.000754 369.216 174.528 
M 236.16 174.528 
C 236.16 174.528 236.16 174.528 236.16 174.528 
C 236.16 174.528 236.16 174.528 236.16 174.528 
C 236.16 174.528 236.16 174.528 236.16 174.528 
C 236.16 174.528 236.16 174.528 236.16 174.528 
C 236.16 174.528 236.16 174.528 236.16 174.528 
C 236.16 174.528 236.16 174.528 236.16 174.528 
C 236.16 174.528 236.16 174.528 236.16 174.528 
C 236.16 174.528 236.16 174.528 236.16 174.528 
C 236.16 174.528 236.16 174.528 236.16 174.528 
C 236.16 174.528 236.16 174.528 236.16 174.528 
C 236.16 174.528 236.16 174.528 236.16 174.528 
C 236.16 174.528 236.16 174.528 236.16 174.528 
C 236.16 174.528 236.16 174.528 236.16 174.528 
C 236.16 174.528 236.16 174.528 236.16 174.528 
C 236.16 174.528 236.16 174.528 236.16 174.528 
C 236.16 174.528 236.16 174.528 236.16 174.528 
M 369.216 174.528 
z
"/>
  </clipPath>
 </defs>
</svg>
